<!-- Generator: Adobe Illustrator 19.2.1, SVG Export Plug-In  -->
<svg version="1.1"
	 xmlns="http://www.w3.org/2000/svg" xmlns:xlink="http://www.w3.org/1999/xlink" xmlns:a="http://ns.adobe.com/AdobeSVGViewerExtensions/3.0/"
	 x="0px" y="0px" width="25.427px" height="25.427px" viewBox="0 0 25.427 25.427"
	 style="enable-background:new 0 0 25.427 25.427;" xml:space="preserve">
<style type="text/css">
	.st0{fill:#FC8B0A;}
</style>
<defs>
</defs>
<g>
	<path class="st0" d="M12.714,0C5.703,0,0,5.703,0,12.714s5.703,12.714,12.714,12.714s12.714-5.703,12.714-12.714S19.724,0,12.714,0
		z M12.714,24.271c-6.373,0-11.557-5.185-11.557-11.557S6.341,1.156,12.714,1.156s11.557,5.185,11.557,11.557
		S19.086,24.271,12.714,24.271z"/>
	<path class="st0" d="M12.714,3.005c-5.362,0-9.708,4.347-9.708,9.708c0,0.008,0,0.015,0,0.023c0.003,1.198,0.993,2.159,2.191,2.159
		h15.035c1.198,0,2.188-0.961,2.191-2.159c0-0.007,0-0.015,0-0.022C22.422,7.352,18.076,3.005,12.714,3.005z M9.781,8.736h1.645
		l-0.209,0.44H9.902L9.478,9.011C9.529,8.865,9.63,8.773,9.781,8.736z M9.461,9.121l0.424,0.165l-0.105,1.046l-0.363,0.33
		l-0.099-0.11L9.461,9.121z M9.285,10.882l0.121-0.11l0.297,0.33l-0.105,1.046l-0.457,0.165L9.285,10.882z M6.919,8.736h1.645
		l-0.209,0.44H7.04L6.616,9.011C6.668,8.865,6.768,8.773,6.919,8.736z M6.6,9.121l0.424,0.165l-0.105,1.046l-0.363,0.33l-0.099-0.11
		L6.6,9.121z M6.424,10.882l0.121-0.11l0.297,0.33l-0.105,1.046l-0.457,0.165L6.424,10.882z M6.517,12.699
		c-0.143-0.037-0.226-0.128-0.248-0.275l0.457-0.165h1.321l0.121,0.44H6.517z M8.581,12.423c-0.051,0.147-0.152,0.239-0.303,0.275
		l-0.121-0.44l0.116-1.156l0.363-0.33l0.099,0.11L8.581,12.423z M8.768,10.552l-0.121,0.11l-0.297-0.33l0.116-1.156l0.209-0.44
		C8.818,8.773,8.9,8.865,8.922,9.011L8.768,10.552z M9.379,12.699c-0.143-0.037-0.226-0.128-0.248-0.275l0.457-0.165h1.321
		l0.121,0.44H9.379z M11.443,12.423c-0.051,0.147-0.152,0.239-0.303,0.275l-0.121-0.44l0.116-1.156l0.363-0.33l0.099,0.11
		L11.443,12.423z M11.63,10.552l-0.121,0.11l-0.297-0.33l0.116-1.156l0.209-0.44c0.143,0.037,0.226,0.128,0.248,0.275L11.63,10.552z
		 M17.155,8.736H18.8l-0.209,0.44h-1.315l-0.424-0.165C16.903,8.865,17.004,8.773,17.155,8.736z M16.836,9.121l0.424,0.165
		l-0.105,1.046l-0.363,0.33l-0.099-0.11L16.836,9.121z M16.659,10.882l0.121-0.11l0.297,0.33l-0.105,1.046l-0.457,0.165
		L16.659,10.882z M14.293,8.736h1.645l-0.209,0.44h-1.315L13.99,9.011C14.042,8.865,14.143,8.773,14.293,8.736z M13.974,9.121
		l0.424,0.165l-0.105,1.046l-0.363,0.33l-0.099-0.11L13.974,9.121z M13.798,10.882l0.121-0.11l0.297,0.33l-0.105,1.046l-0.457,0.165
		L13.798,10.882z M13.891,12.699c-0.143-0.037-0.226-0.128-0.248-0.275l0.457-0.165h1.321l0.121,0.44H13.891z M15.955,12.423
		c-0.051,0.147-0.152,0.239-0.303,0.275l-0.121-0.44l0.116-1.156l0.363-0.33l0.099,0.11L15.955,12.423z M16.142,10.552l-0.121,0.11
		l-0.297-0.33l0.116-1.156l0.209-0.44c0.143,0.037,0.226,0.128,0.248,0.275L16.142,10.552z M16.753,12.699
		c-0.143-0.037-0.226-0.128-0.248-0.275l0.457-0.165h1.321l0.121,0.44H16.753z M18.817,12.423c-0.051,0.147-0.152,0.239-0.303,0.275
		l-0.121-0.44l0.116-1.156l0.363-0.33l0.099,0.11L18.817,12.423z M19.004,10.552l-0.121,0.11l-0.297-0.33l0.116-1.156l0.209-0.44
		c0.143,0.037,0.226,0.128,0.248,0.275L19.004,10.552z"/>
</g>
</svg>