<!-- Generator: Adobe Illustrator 19.2.1, SVG Export Plug-In  -->
<svg version="1.1"
	 xmlns="http://www.w3.org/2000/svg" xmlns:xlink="http://www.w3.org/1999/xlink" xmlns:a="http://ns.adobe.com/AdobeSVGViewerExtensions/3.0/"
	 x="0px" y="0px" width="70.967px" height="74.862px" viewBox="0 0 70.967 74.862"
	 style="enable-background:new 0 0 70.967 74.862;" xml:space="preserve">
<style type="text/css">
	.st0{fill:#FC8B0A;}
	.st1{fill:none;}
</style>
<defs>
</defs>
<g>
	<path class="st0" d="M34.888,74.862h-6.627V58.781h6.627V74.862z M42.706,58.781h-6.627v16.081h6.627V58.781z M16.318,52.263
		h-4.381v4.381h4.381V52.263z M21.488,52.263h-4.381v4.381h4.381V52.263z M16.318,57.44h-4.381v4.381h4.381V57.44z M21.488,57.44
		h-4.381v4.381h4.381V57.44z M53.859,52.263h-4.381v4.381h4.381V52.263z M59.03,52.263h-4.381v4.381h4.381V52.263z M53.859,57.44
		h-4.381v4.381h4.381V57.44z M59.03,57.44h-4.381v4.381h4.381V57.44z M42.706,53.192H28.261v4.676h14.445V53.192z M68.355,43.99
		l-29.639-9.616c-2.114-0.686-4.35-0.686-6.464,0l-10.763,3.492v-4.813c0-0.906-0.734-1.64-1.64-1.64h-6.272
		c-0.906,0-1.64,0.734-1.64,1.64v7.912L2.612,43.99C1.089,44.38,0,45.77,0,47.354l0,25.132c0,1.249,0.962,2.338,2.21,2.375
		c1.291,0.039,2.35-0.997,2.35-2.279V48.152l29.098-9.44c1.194-0.387,2.456-0.387,3.649,0l29.098,9.44l0,24.333
		c0,1.249,0.962,2.338,2.21,2.375c1.291,0.039,2.35-0.997,2.35-2.279V47.354C70.967,45.77,69.878,44.38,68.355,43.99z"/>
	<path class="st1" d="M43.341,28.539"/>
	<path class="st0" d="M34.518,0.007c-4.884,0.186-8.882,4.135-9.121,9.017c-0.139,2.822,0.955,5.391,2.789,7.216
		c1.421,1.414,2.181,3.362,2.181,5.366v0c0,0.944,0.765,1.709,1.709,1.709h5.625c0.944,0,1.709-0.765,1.709-1.709
		c0-2.056,0.85-3.999,2.285-5.472c1.669-1.712,2.697-4.052,2.697-6.632C44.392,4.132,39.935-0.199,34.518,0.007z M36.835,11.658
		l-0.754,1.281l-0.037,0.063l-1.116,1.896l-2.071,3.52l2.055-5.913l-1.971-0.849l0.754-1.281l0.037-0.063l1.116-1.897l2.071-3.52
		l-2.09,6.033L36.835,11.658z M31.834,28.79l6.748-3.299l-0.18,0.927l-6.283,3.072c-0.123-0.151-0.213-0.332-0.253-0.534
		L31.834,28.79z M31.404,26.574l5.826-2.848h0.565c0.249,0,0.471,0.097,0.635,0.252l-6.878,3.363L31.404,26.574z M31.067,24.832
		c-0.111-0.574,0.328-1.107,0.913-1.107h2.005l-2.861,1.399L31.067,24.832z M38.062,28.171l-0.152,0.785
		c-0.11,0.57-0.609,0.981-1.19,0.981h-2.271L38.062,28.171z"/>
</g>
</svg>