<!-- Generator: Adobe Illustrator 19.2.1, SVG Export Plug-In  -->
<svg version="1.1"
	 xmlns="http://www.w3.org/2000/svg" xmlns:xlink="http://www.w3.org/1999/xlink" xmlns:a="http://ns.adobe.com/AdobeSVGViewerExtensions/3.0/"
	 x="0px" y="0px" width="782.825px" height="154.387px" viewBox="0 0 782.825 154.387"
	 style="enable-background:new 0 0 782.825 154.387;" xml:space="preserve">
<style type="text/css">
	.st0{fill:#FCFCFC;}
	.st1{fill:none;stroke:#FCFCFC;stroke-width:3.6952;stroke-miterlimit:10;}
	.st2{fill:none;}
</style>
<defs>
</defs>
<path class="st0" d="M77.194,119.137c-23.127,0-41.943-18.815-41.943-41.943s18.815-41.943,41.943-41.943
	s41.943,18.815,41.943,41.943S100.321,119.137,77.194,119.137z M77.194,41.712c-19.565,0-35.482,15.917-35.482,35.482
	s15.917,35.482,35.482,35.482s35.482-15.917,35.482-35.482S96.759,41.712,77.194,41.712z M80.424,25.32V3.23
	c0-1.784-1.446-3.23-3.23-3.23s-3.23,1.446-3.23,3.23v22.09c0,1.784,1.446,3.23,3.23,3.23S80.424,27.104,80.424,25.32z
	 M42.798,42.798c1.262-1.262,1.262-3.307,0-4.568l-15.62-15.62c-1.261-1.261-3.307-1.261-4.568,0c-1.262,1.262-1.262,3.307,0,4.568
	l15.62,15.62c0.631,0.631,1.458,0.946,2.284,0.946S42.167,43.429,42.798,42.798z M28.551,77.194c0-1.784-1.446-3.23-3.23-3.23H3.23
	c-1.784,0-3.23,1.446-3.23,3.23s1.446,3.23,3.23,3.23h22.09C27.104,80.424,28.551,78.978,28.551,77.194z M27.178,131.778
	l15.62-15.62c1.262-1.262,1.262-3.307,0-4.568c-1.261-1.261-3.307-1.261-4.568,0l-15.62,15.62c-1.262,1.262-1.262,3.307,0,4.568
	c0.631,0.631,1.458,0.946,2.284,0.946S26.547,132.409,27.178,131.778z M80.424,151.157v-22.09c0-1.784-1.446-3.23-3.23-3.23
	s-3.23,1.446-3.23,3.23v22.09c0,1.784,1.446,3.23,3.23,3.23S80.424,152.941,80.424,151.157z M131.778,131.778
	c1.262-1.262,1.262-3.307,0-4.568l-15.62-15.62c-1.262-1.261-3.307-1.261-4.568,0c-1.262,1.262-1.262,3.307,0,4.568l15.62,15.62
	c0.631,0.631,1.458,0.946,2.284,0.946C130.32,132.724,131.147,132.409,131.778,131.778z M154.387,77.194
	c0-1.784-1.446-3.23-3.23-3.23h-22.09c-1.784,0-3.23,1.446-3.23,3.23s1.446,3.23,3.23,3.23h22.09
	C152.941,80.424,154.387,78.978,154.387,77.194z M116.158,42.798l15.62-15.62c1.262-1.262,1.262-3.307,0-4.568s-3.307-1.261-4.568,0
	l-15.62,15.62c-1.262,1.262-1.262,3.307,0,4.568c0.631,0.631,1.457,0.946,2.284,0.946C114.7,43.744,115.527,43.429,116.158,42.798z"
	/>
<g>
	<path class="st0" d="M318.564,5.983h-58.466l-7.323,7.323v28.781c-0.066,0.174-0.106,0.36-0.106,0.557s0.04,0.383,0.106,0.557
		v28.572l7.532,7.532h58.257l7.532-7.532V13.515L318.564,5.983z M321.874,41.061h-64.877V20.701h64.877V41.061z M256.996,44.227
		h64.877v20.13h-64.877V44.227z M261.846,10.205h54.968l5.059,5.059v3.959h-64.877v-4.168L261.846,10.205z M316.815,75.083h-54.759
		l-5.059-5.059v-4.189h64.877v4.189L316.815,75.083z"/>
	<path class="st0" d="M387.769,5.983h-58.466l-7.323,7.323v28.781c-0.066,0.174-0.106,0.36-0.106,0.557s0.04,0.383,0.106,0.557
		v28.572l7.532,7.532h58.257l7.532-7.532V13.515L387.769,5.983z M391.079,41.061h-64.877V20.701h64.877V41.061z M326.202,44.227
		h64.877v20.13h-64.877V44.227z M331.052,10.205h54.968l5.059,5.059v3.959h-64.877v-4.168L331.052,10.205z M386.02,75.083h-54.759
		l-5.059-5.059v-4.189h64.877v4.189L386.02,75.083z"/>
	<path class="st0" d="M456.974,5.983h-58.466l-7.323,7.323v28.781c-0.066,0.174-0.106,0.36-0.106,0.557s0.04,0.383,0.106,0.557
		v28.572l7.532,7.532h58.257l7.532-7.532V13.515L456.974,5.983z M460.284,41.061h-64.877V20.701h64.877V41.061z M395.407,44.227
		h64.877v20.13h-64.877V44.227z M400.257,10.205h54.968l5.059,5.059v3.959h-64.877v-4.168L400.257,10.205z M455.225,75.083h-54.759
		l-5.059-5.059v-4.189h64.877v4.189L455.225,75.083z"/>
	<path class="st0" d="M318.564,75.083h-58.466l-7.323,7.323v28.781c-0.066,0.174-0.106,0.36-0.106,0.557
		c0,0.197,0.04,0.383,0.106,0.557v28.572l7.532,7.532h58.257l7.532-7.532V82.615L318.564,75.083z M321.874,110.16h-64.877V89.801
		h64.877V110.16z M256.996,113.327h64.877v20.13h-64.877V113.327z M261.846,79.305h54.968l5.059,5.059v3.959h-64.877v-4.168
		L261.846,79.305z M316.815,144.182h-54.759l-5.059-5.059v-4.189h64.877v4.189L316.815,144.182z"/>
	<path class="st0" d="M387.769,75.083h-58.466l-7.323,7.323v28.781c-0.066,0.174-0.106,0.36-0.106,0.557
		c0,0.197,0.04,0.383,0.106,0.557v28.572l7.532,7.532h58.257l7.532-7.532V82.615L387.769,75.083z M391.079,110.16h-64.877V89.801
		h64.877V110.16z M326.202,113.327h64.877v20.13h-64.877V113.327z M331.052,79.305h54.968l5.059,5.059v3.959h-64.877v-4.168
		L331.052,79.305z M386.02,144.182h-54.759l-5.059-5.059v-4.189h64.877v4.189L386.02,144.182z"/>
	<path class="st0" d="M456.974,75.083h-58.466l-7.323,7.323v28.781c-0.066,0.174-0.106,0.36-0.106,0.557
		c0,0.197,0.04,0.383,0.106,0.557v28.572l7.532,7.532h58.257l7.532-7.532V82.615L456.974,75.083z M460.284,110.16h-64.877V89.801
		h64.877V110.16z M395.407,113.327h64.877v20.13h-64.877V113.327z M400.257,79.305h54.968l5.059,5.059v3.959h-64.877v-4.168
		L400.257,79.305z M455.225,144.182h-54.759l-5.059-5.059v-4.189h64.877v4.189L455.225,144.182z"/>
	<path class="st0" d="M554.487,94.367v-7.2h-3.399v-6.32c0-2.745-2.226-4.971-4.971-4.971h-39.393c-2.745,0-4.971,2.226-4.971,4.971
		v27.297h-3.399v7.2h3.399v27.297c0,2.745,2.226,4.971,4.971,4.971h39.393c2.745,0,4.971-2.226,4.971-4.971v-8.402h3.399v-7.2
		h-3.399V94.367H554.487z M519.598,82.634v-2.465c0-0.709,0.574-1.283,1.283-1.283c0.709,0,1.283,0.574,1.283,1.283v2.465
		c0.807,0.498,1.305,1.447,1.132,2.498c-0.174,1.061-1.065,1.9-2.133,2.019c-1.479,0.166-2.732-0.988-2.732-2.434
		C518.432,83.836,518.899,83.065,519.598,82.634z M528.052,121.393l-0.203-5.228c-0.061-1.641-0.122-3.627-0.122-5.613h-0.061
		c-0.425,1.743-0.993,3.688-1.52,5.289l-1.662,5.329h-2.411l-1.459-5.289c-0.446-1.601-0.912-3.546-1.236-5.329h-0.04
		c-0.081,1.844-0.142,3.951-0.243,5.653l-0.243,5.187h-2.857l0.871-13.657h4.113l1.337,4.559c0.425,1.58,0.851,3.283,1.155,4.883
		h0.061c0.385-1.581,0.851-3.384,1.297-4.904l1.459-4.539h4.032l0.75,13.657H528.052z M529.512,84.717
		c0-0.882,0.467-1.652,1.166-2.084v-2.465c0-0.709,0.574-1.283,1.283-1.283s1.283,0.574,1.283,1.283v2.465
		c0.807,0.498,1.305,1.447,1.132,2.498c-0.174,1.061-1.065,1.9-2.133,2.019C530.765,87.316,529.512,86.163,529.512,84.717z
		 M536.543,121.393h-3.1v-13.657h3.1V121.393z"/>
	<path class="st1" d="M464.506,30.881h11.534c3.359,0,6.082,2.723,6.082,6.082v68.698c0,3.359,2.723,6.082,6.082,6.082h10.151"/>
</g>
<g>
	<path class="st0" d="M716.046,146.476h-12.266v-29.764h12.266V146.476z M730.517,116.711H718.25v29.764h12.266V116.711z
		 M681.673,104.647h-8.108v8.108h8.108V104.647z M691.244,104.647h-8.108v8.108h8.108V104.647z M681.673,114.229h-8.108v8.109h8.108
		V114.229z M691.244,114.229h-8.108v8.109h8.108V114.229z M751.16,104.647h-8.108v8.108h8.108V104.647z M760.731,104.647h-8.108
		v8.108h8.108V104.647z M751.16,114.229h-8.108v8.109h8.108V114.229z M760.731,114.229h-8.108v8.109h8.108V114.229z
		 M730.517,106.366h-26.737v8.655h26.737V106.366z M777.991,89.334L723.13,71.536c-3.914-1.27-8.051-1.27-11.965,0l-19.922,6.463
		V69.09c0-1.676-1.359-3.035-3.035-3.035H676.6c-1.676,0-3.035,1.359-3.035,3.035v14.644l-17.26,5.599
		c-2.818,0.722-4.835,3.295-4.835,6.227v46.518c0,2.311,1.781,4.327,4.091,4.396c2.39,0.072,4.35-1.845,4.35-4.219V97.038
		l53.859-17.473c2.21-0.717,4.545-0.717,6.755,0l53.859,17.473v45.04c0,2.311,1.781,4.327,4.091,4.396
		c2.39,0.072,4.35-1.845,4.35-4.219V95.56C782.825,92.629,780.809,90.055,777.991,89.334z"/>
	<path class="st2" d="M731.691,60.735"/>
	<path class="st0" d="M715.36,7.925c-9.041,0.343-16.44,7.654-16.883,16.691c-0.256,5.224,1.767,9.978,5.162,13.356
		c2.63,2.617,4.037,6.222,4.037,9.933v0c0,1.747,1.416,3.164,3.164,3.164h10.412c1.747,0,3.164-1.416,3.164-3.164
		c0-3.805,1.574-7.402,4.23-10.128c3.089-3.169,4.991-7.5,4.991-12.275C733.636,15.56,725.387,7.544,715.36,7.925z M719.65,29.489
		l-1.396,2.371l-0.069,0.117l-2.065,3.51l-3.834,6.516l3.803-10.944l-3.648-1.571l1.396-2.371l0.068-0.116l2.066-3.511l3.834-6.515
		l-3.869,11.166L719.65,29.489z M710.392,61.199l12.489-6.106l-0.332,1.716l-11.63,5.686c-0.228-0.28-0.395-0.614-0.467-0.989
		L710.392,61.199z M709.598,57.098l10.784-5.272h1.047c0.46,0,0.871,0.18,1.176,0.467l-12.732,6.224L709.598,57.098z
		 M708.974,53.874c-0.206-1.062,0.608-2.049,1.69-2.049h3.711l-5.296,2.589L708.974,53.874z M721.921,60.054l-0.281,1.453
		c-0.204,1.055-1.128,1.817-2.202,1.817h-4.204L721.921,60.054z"/>
</g>
<rect x="580.467" y="65.835" class="st0" width="42.695" height="7.79"/>
<rect x="580.467" y="82.01" class="st0" width="42.695" height="7.79"/>
<rect x="181.157" y="73.298" class="st0" width="42.695" height="7.79"/>
<rect x="181.157" y="73.298" transform="matrix(4.490459e-11 -1 1 4.490459e-11 125.3112 279.6986)" class="st0" width="42.695" height="7.79"/>
</svg>