<!-- Generator: Adobe Illustrator 19.2.1, SVG Export Plug-In  -->
<svg version="1.1"
	 xmlns="http://www.w3.org/2000/svg" xmlns:xlink="http://www.w3.org/1999/xlink" xmlns:a="http://ns.adobe.com/AdobeSVGViewerExtensions/3.0/"
	 x="0px" y="0px" width="163.063px" height="76.945px" viewBox="0 0 163.063 76.945"
	 style="enable-background:new 0 0 163.063 76.945;" xml:space="preserve">
<style type="text/css">
	.st0{fill:#FC8B0A;}
	.st1{fill:none;stroke:#FC8B0A;stroke-width:1.9964;stroke-miterlimit:10;}
</style>
<defs>
</defs>
<g>
	<path class="st0" d="M35.601,0H4.014L0.057,3.956v15.549C0.022,19.6,0,19.7,0,19.807c0,0.106,0.022,0.207,0.057,0.301v15.436
		l4.069,4.069h31.475l4.069-4.069V4.069L35.601,0z M37.389,18.951H2.338v-11h35.051V18.951z M2.338,20.662h35.051v10.876H2.338
		V20.662z M4.959,2.281h29.698l2.733,2.733v2.139H2.338V4.901L4.959,2.281z M34.656,37.332H5.071l-2.733-2.733v-2.263h35.051v2.263
		L34.656,37.332z"/>
	<path class="st0" d="M72.991,0H41.403l-3.956,3.956v15.549c-0.035,0.094-0.057,0.195-0.057,0.301c0,0.106,0.022,0.207,0.057,0.301
		v15.436l4.069,4.069h31.475l4.069-4.069V4.069L72.991,0z M74.779,18.951H39.728v-11h35.051V18.951z M39.728,20.662h35.051v10.876
		H39.728V20.662z M42.348,2.281h29.698l2.733,2.733v2.139H39.728V4.901L42.348,2.281z M72.046,37.332H42.461l-2.733-2.733v-2.263
		h35.051v2.263L72.046,37.332z"/>
	<path class="st0" d="M110.38,0H78.793l-3.956,3.956v15.549c-0.035,0.094-0.057,0.195-0.057,0.301c0,0.106,0.022,0.207,0.057,0.301
		v15.436l4.069,4.069h31.475l4.069-4.069V4.069L110.38,0z M112.168,18.951H77.117v-11h35.051V18.951z M77.117,20.662h35.051v10.876
		H77.117V20.662z M79.737,2.281h29.698l2.733,2.733v2.139H77.117V4.901L79.737,2.281z M109.435,37.332H79.85l-2.733-2.733v-2.263
		h35.051v2.263L109.435,37.332z"/>
	<path class="st0" d="M35.601,37.332H4.014l-3.956,3.956v15.549C0.022,56.932,0,57.033,0,57.139s0.022,0.207,0.057,0.301v15.436
		l4.069,4.069h31.475l4.069-4.069V41.402L35.601,37.332z M37.389,56.283H2.338v-11h35.051V56.283z M2.338,57.994h35.051V68.87H2.338
		V57.994z M4.959,39.613h29.698l2.733,2.733v2.139H2.338v-2.252L4.959,39.613z M34.656,74.664H5.071l-2.733-2.733v-2.263h35.051
		v2.263L34.656,74.664z"/>
	<path class="st0" d="M72.991,37.332H41.403l-3.956,3.956v15.549c-0.035,0.094-0.057,0.195-0.057,0.301s0.022,0.207,0.057,0.301
		v15.436l4.069,4.069h31.475l4.069-4.069V41.402L72.991,37.332z M74.779,56.283H39.728v-11h35.051V56.283z M39.728,57.994h35.051
		V68.87H39.728V57.994z M42.348,39.613h29.698l2.733,2.733v2.139H39.728v-2.252L42.348,39.613z M72.046,74.664H42.461l-2.733-2.733
		v-2.263h35.051v2.263L72.046,74.664z"/>
	<path class="st0" d="M110.38,37.332H78.793l-3.956,3.956v15.549c-0.035,0.094-0.057,0.195-0.057,0.301s0.022,0.207,0.057,0.301
		v15.436l4.069,4.069h31.475l4.069-4.069V41.402L110.38,37.332z M112.168,56.283H77.117v-11h35.051V56.283z M77.117,57.994h35.051
		V68.87H77.117V57.994z M79.737,39.613h29.698l2.733,2.733v2.139H77.117v-2.252L79.737,39.613z M109.435,74.664H79.85l-2.733-2.733
		v-2.263h35.051v2.263L109.435,74.664z"/>
	<path class="st0" d="M163.063,47.751v-3.89h-1.836v-3.415c0-1.483-1.202-2.686-2.686-2.686h-21.283
		c-1.483,0-2.686,1.202-2.686,2.686v14.748h-1.836v3.89h1.836v14.748c0,1.483,1.202,2.686,2.686,2.686h21.283
		c1.483,0,2.686-1.202,2.686-2.686v-4.54h1.836v-3.89h-1.836V47.751H163.063z M144.214,41.412V40.08c0-0.383,0.31-0.693,0.693-0.693
		c0.383,0,0.693,0.31,0.693,0.693v1.332c0.436,0.269,0.705,0.782,0.612,1.35c-0.094,0.573-0.575,1.026-1.152,1.091
		c-0.799,0.089-1.476-0.534-1.476-1.315C143.584,42.061,143.836,41.645,144.214,41.412z M148.781,62.352l-0.11-2.824
		c-0.033-0.887-0.066-1.96-0.066-3.033h-0.033c-0.23,0.942-0.536,1.992-0.821,2.857l-0.898,2.879h-1.303l-0.788-2.857
		c-0.241-0.865-0.493-1.916-0.668-2.879h-0.022c-0.044,0.996-0.077,2.135-0.131,3.054l-0.131,2.803h-1.544l0.471-7.379h2.222
		l0.723,2.463c0.23,0.854,0.46,1.773,0.624,2.638h0.033c0.208-0.854,0.46-1.828,0.701-2.649l0.788-2.452h2.179l0.405,7.379H148.781z
		 M149.57,42.537c0-0.476,0.253-0.893,0.63-1.126V40.08c0-0.383,0.31-0.693,0.693-0.693s0.693,0.31,0.693,0.693v1.332
		c0.436,0.269,0.705,0.782,0.612,1.35c-0.094,0.573-0.575,1.026-1.152,1.091C150.247,43.942,149.57,43.319,149.57,42.537z
		 M153.369,62.352h-1.675v-7.379h1.675V62.352z"/>
	<path class="st1" d="M114.449,13.451h6.231c1.815,0,3.286,1.471,3.286,3.286v37.116c0,1.815,1.471,3.286,3.286,3.286h5.484"/>
</g>
</svg>