<!-- Generator: Adobe Illustrator 19.2.1, SVG Export Plug-In  -->
<svg version="1.1"
	 xmlns="http://www.w3.org/2000/svg" xmlns:xlink="http://www.w3.org/1999/xlink" xmlns:a="http://ns.adobe.com/AdobeSVGViewerExtensions/3.0/"
	 x="0px" y="0px" width="192.739px" height="122.225px" viewBox="0 0 192.739 122.225"
	 style="enable-background:new 0 0 192.739 122.225;" xml:space="preserve">
<style type="text/css">
	.st0{fill:#FC8B0A;}
</style>
<defs>
</defs>
<path class="st0" d="M191.393,3.253h-2.292V0.03h-3.483v3.222h-2.22V0.03h-3.482l-0.193-0.023c-0.008,0.064-0.155,1.259-0.498,3.245
	h-3.461h-0.423h-30.503h-0.423h-4.152V0.03h-3.483v3.222h-2.22V0.03h-3.483L130.913,0c-0.012,0.063-0.236,1.259-0.671,3.253h-1.457
	c-0.693,0-1.298,0.523-1.343,1.215c-0.049,0.758,0.551,1.387,1.298,1.387h0.915c-0.908,3.903-2.305,9.381-4.186,15.267h-0.662v2.024
	c-0.071,0.213-0.144,0.428-0.216,0.642h-1.62v-2.666h-2.669c-0.019-0.042-0.031-0.071-0.034-0.078l-0.178,0.078l-0.194-0.019
	c-0.005,0.053-0.108,1.037-0.364,2.685h-2.878h-0.35H91.066h-0.35H87.28v-2.666h-2.882v2.666h-1.837v-2.666H79.86
	c-0.013-0.031-0.022-0.055-0.024-0.061l-0.156,0.061l-0.167-0.001c0,0.052-0.012,1.028-0.111,2.667h-1.618
	c-0.573,0-1.074,0.433-1.111,1.005c-0.04,0.627,0.456,1.148,1.074,1.148h1.5c-0.296,3.525-0.917,8.64-2.222,14.174v-1.124h-2.372
	v2.195H73.14v-2.195h-2.168c-0.009-0.03-0.016-0.052-0.018-0.057l-0.186,0.057l-0.184,0.004c0,0.005,0,0.025,0.001,0.052
	l-0.002,0.001c0,0.001,0.002,0.006,0.002,0.008c0.003,0.207,0.007,0.955-0.041,2.13h-2.604h-0.288H46.873h-0.288h-2.828v-2.195
	h-2.372v2.195h-1.512v-2.195h-2.194c-0.011-0.029-0.019-0.052-0.021-0.057L37.5,38.991l-0.166-0.006
	c-0.002,0.044-0.036,0.841-0.153,2.201h-1.242c-0.472,0-0.884,0.356-0.915,0.827c-0.033,0.516,0.375,0.945,0.884,0.945h1.1
	c-0.353,3.305-1.071,8.35-2.496,13.902h-0.636v-1.77h-1.914v1.77h-1.22v-1.77h-1.656c-0.01-0.029-0.017-0.051-0.019-0.057
	l-0.176,0.057h-0.063v0.02l-0.112,0.036c0.003,0.008,0.041,0.126,0.112,0.335v1.378H26.55h-0.232H9.559H9.326H7.045v-1.77H5.132
	v1.77h-1.22v-1.77H2.171c-0.006-0.023-0.011-0.04-0.011-0.042l-0.322,0.085c0.02,0.076,0.075,0.281,0.161,0.591v1.137H0.739
	c-0.381,0-0.713,0.287-0.738,0.667c-0.027,0.416,0.303,0.762,0.713,0.762h2.039c2.021,6.548,7.192,21.11,13.881,23.728v38.904
	c0,0.72,0.584,1.303,1.303,1.303c0.72,0,1.303-0.584,1.303-1.303v-38.53c1.784-0.191,3.539-1.306,5.237-3.34
	c3.522-4.218,6.109-9.353,8.009-14.52c0.471,1.013,0.979,2.058,1.524,3.111c4.422,8.544,8.954,13.442,13.469,14.559
	c0.648,0.16,1.293,0.24,1.936,0.24c2.114,0,4.2-0.864,6.229-2.582v40.749c0,0.893,0.724,1.616,1.616,1.616
	c0.893,0,1.616-0.724,1.616-1.616V76.526c3.472-4.103,5.948-8.813,7.712-13.48c3.54-3.903,6.135-8.788,8.037-13.831
	c3.34,7.086,8.593,15.629,15.178,17.728c1.028,0.328,2.059,0.491,3.093,0.491c2.511,0,5.035-0.965,7.536-2.886
	c0.439-0.337,0.867-0.689,1.287-1.05v56.763c0,1.084,0.879,1.963,1.963,1.963s1.963-0.879,1.963-1.963v-60.74
	c2.849-3.369,5.166-7.259,7.043-11.245c4.317-5.134,7.891-12.61,10.71-20.152c4.442,8.065,12.666,20.631,21.986,23.347
	c1.229,0.358,2.444,0.537,3.644,0.537c2.524,0,4.975-0.792,7.321-2.371c0.465-0.313,0.918-0.643,1.365-0.982v71.196
	c0,1.31,1.062,2.373,2.373,2.373s2.373-1.062,2.373-2.373V44.287c6.448-7.091,10.585-16.727,13.072-24.364
	c1.76-5.404,2.909-10.424,3.616-14.068h12.287c0.747,0,1.347-0.63,1.298-1.387C192.691,3.776,192.086,3.253,191.393,3.253z
	 M171.761,5.855l-11.672,8.484l-11.672-8.484H171.761z M131.077,0.902v2.351h-0.493C130.803,2.246,130.968,1.448,131.077,0.902z
	 M123.844,25.941c-0.156,0.439-0.315,0.877-0.476,1.316c-0.247-0.457-0.481-0.896-0.701-1.316H123.844z M120.089,22.672v1.116
	h-0.164C119.989,23.37,120.044,22.998,120.089,22.672z M117.003,25.941h2.168c-0.941,5.249-2.954,13.992-6.887,22.297
	c-0.111,0.13-0.221,0.262-0.333,0.389c-1.968,2.23-4.081,3.479-6.303,3.734v-18.07h-0.132L117.003,25.941z M113.342,25.941
	l-9.657,7.019l-9.657-7.019H113.342z M90.366,25.941l11.488,8.35h-0.132V51.82c-8.351-3.141-16.148-18.025-19.767-25.879H90.366z
	 M76.3,42.958c-0.484,1.765-1.041,3.551-1.682,5.324c-0.906-1.976-1.656-3.811-2.237-5.324H76.3z M68.227,42.958h2.22
	c-0.302,4.478-1.252,12.164-4.203,19.968c-0.373,0.407-0.754,0.805-1.148,1.189c-1.97,1.919-4.056,2.839-6.217,2.75V49.832h-0.109
	L68.227,42.958z M65.213,42.958l-7.95,5.779l-7.95-5.779H65.213z M46.297,42.958l9.458,6.874h-0.109V66.01
	c-7.192-3.452-13.504-16.387-16.364-23.052H46.297z M34.134,58.289c-0.479,1.741-1.029,3.521-1.659,5.302
	c-0.914-2.01-1.663-3.847-2.224-5.302H34.134z M24.351,58.289l-6.413,4.661l-6.413-4.661H24.351z M6.577,67.802
	c-1.518-3.565-2.705-7.078-3.465-9.512h5.982l7.628,5.545h-0.088v17.822C13.317,80.263,9.861,75.512,6.577,67.802z M24.223,78.839
	c-1.626,1.948-3.296,3.024-4.981,3.218V63.834h-0.088l7.628-5.545h3.069c0.6,1.569,1.424,3.603,2.44,5.819
	C30.393,69.347,27.79,74.567,24.223,78.839z M47.57,81.844c-6.264-1.549-11.59-10.646-14.897-17.82
	c0.691-1.926,1.289-3.853,1.804-5.734h0.685c0.411,0,0.74-0.346,0.713-0.762c-0.025-0.38-0.357-0.667-0.738-0.667h-0.282
	c1.421-5.558,2.136-10.602,2.488-13.902h1.57c1.039,2.441,2.549,5.749,4.398,9.117c4.221,7.692,8.362,12.49,12.336,14.309v12.986
	C53.02,81.687,50.307,82.521,47.57,81.844z M58.878,75.955v-8.754c0.097,0.004,0.194,0.008,0.29,0.008
	c2.146,0,4.212-0.956,6.161-2.856c0.2-0.195,0.397-0.395,0.592-0.596C64.246,67.985,61.971,72.214,58.878,75.955z M66.911,62.174
	c2.717-7.553,3.613-14.883,3.904-19.216h1.15c0.624,1.632,1.452,3.656,2.464,5.835C72.633,53.633,70.202,58.337,66.911,62.174z
	 M100.198,64.24c-3.423,2.63-6.88,3.414-10.274,2.333c-6.571-2.095-11.814-10.781-15.109-17.865
	c0.703-1.913,1.309-3.844,1.829-5.749h1.972c0.509,0,0.918-0.429,0.884-0.945c-0.03-0.471-0.442-0.827-0.914-0.827h-1.48
	c1.48-5.948,2.162-11.497,2.476-15.245h1.997c1.264,2.762,3.052,6.418,5.199,10.116c5.24,9.028,10.258,14.437,14.944,16.121v10.811
	C101.227,63.422,100.719,63.84,100.198,64.24z M105.648,52.697c2.148-0.235,4.192-1.356,6.102-3.357
	c-1.684,3.388-3.699,6.671-6.102,9.58V52.697z M113.26,47.039c3.558-7.962,5.414-16.119,6.305-21.098h2.665
	c0.295,0.564,0.616,1.167,0.961,1.798C120.548,34.853,117.235,41.927,113.26,47.039z M156.135,49.316
	c-3.361,2.261-6.94,2.861-10.639,1.783c-9.311-2.714-17.547-15.457-21.917-23.455c0.21-0.568,0.416-1.136,0.617-1.704h5.426
	c0.618,0,1.115-0.521,1.074-1.148c-0.037-0.572-0.537-1.005-1.111-1.005h-1.896v-2.666h-1.871
	c1.881-5.896,3.277-11.375,4.181-15.267h13.993l13.884,10.092h-0.16V48.17C157.2,48.569,156.674,48.953,156.135,49.316z
	 M162.462,43.707V15.947h-0.16l13.884-10.092h2.557C176.956,14.937,172.394,32.546,162.462,43.707z M179.625,3.253
	c0.121-0.714,0.218-1.324,0.291-1.813v1.813H179.625z"/>
</svg>