<!-- Generator: Adobe Illustrator 19.2.1, SVG Export Plug-In  -->
<svg version="1.1"
	 xmlns="http://www.w3.org/2000/svg" xmlns:xlink="http://www.w3.org/1999/xlink" xmlns:a="http://ns.adobe.com/AdobeSVGViewerExtensions/3.0/"
	 x="0px" y="0px" width="83.411px" height="83.411px" viewBox="0 0 83.411 83.411"
	 style="enable-background:new 0 0 83.411 83.411;" xml:space="preserve">
<style type="text/css">
	.st0{fill:#FC8B0A;}
</style>
<defs>
</defs>
<path class="st0" d="M41.705,64.366c-12.495,0-22.66-10.165-22.66-22.66s10.165-22.66,22.66-22.66s22.66,10.165,22.66,22.66
	S54.2,64.366,41.705,64.366z M41.705,22.536c-10.57,0-19.17,8.6-19.17,19.17s8.6,19.17,19.17,19.17s19.17-8.6,19.17-19.17
	S52.276,22.536,41.705,22.536z M43.451,13.68V1.745C43.451,0.781,42.669,0,41.705,0S39.96,0.781,39.96,1.745V13.68
	c0,0.964,0.781,1.745,1.745,1.745S43.451,14.644,43.451,13.68z M23.122,23.122c0.682-0.682,0.682-1.787,0-2.468l-8.439-8.439
	c-0.681-0.681-1.787-0.681-2.468,0c-0.682,0.682-0.682,1.787,0,2.468l8.439,8.439c0.341,0.341,0.787,0.511,1.234,0.511
	S22.782,23.463,23.122,23.122z M15.425,41.705c0-0.964-0.781-1.745-1.745-1.745H1.745C0.781,39.96,0,40.741,0,41.705
	s0.781,1.745,1.745,1.745H13.68C14.644,43.451,15.425,42.669,15.425,41.705z M14.683,71.196l8.439-8.439
	c0.682-0.682,0.682-1.787,0-2.468c-0.681-0.681-1.787-0.681-2.468,0l-8.439,8.439c-0.682,0.682-0.682,1.787,0,2.468
	c0.341,0.341,0.787,0.511,1.234,0.511S14.343,71.536,14.683,71.196z M43.451,81.665V69.731c0-0.964-0.781-1.745-1.745-1.745
	s-1.745,0.781-1.745,1.745v11.934c0,0.964,0.781,1.745,1.745,1.745S43.451,82.629,43.451,81.665z M71.196,71.196
	c0.682-0.682,0.682-1.787,0-2.468l-8.439-8.439c-0.682-0.681-1.787-0.681-2.468,0c-0.682,0.682-0.682,1.787,0,2.468l8.439,8.439
	c0.341,0.341,0.787,0.511,1.234,0.511S70.855,71.536,71.196,71.196z M83.411,41.705c0-0.964-0.781-1.745-1.745-1.745H69.731
	c-0.964,0-1.745,0.781-1.745,1.745s0.781,1.745,1.745,1.745h11.934C82.629,43.451,83.411,42.669,83.411,41.705z M62.757,23.122
	l8.439-8.439c0.682-0.682,0.682-1.787,0-2.468c-0.682-0.682-1.787-0.681-2.468,0l-8.439,8.439c-0.682,0.682-0.682,1.787,0,2.468
	c0.341,0.341,0.787,0.511,1.234,0.511C61.969,23.634,62.416,23.463,62.757,23.122z"/>
</svg>