<!-- Generator: Adobe Illustrator 19.2.0, SVG Export Plug-In  -->
<svg version="1.1"
	 xmlns="http://www.w3.org/2000/svg" xmlns:xlink="http://www.w3.org/1999/xlink" xmlns:a="http://ns.adobe.com/AdobeSVGViewerExtensions/3.0/"
	 x="0px" y="0px" width="159.775px" height="151.952px" viewBox="0 0 159.775 151.952"
	 style="enable-background:new 0 0 159.775 151.952;" xml:space="preserve">
<style type="text/css">
	.st0{fill-rule:evenodd;clip-rule:evenodd;fill:#FFFFFF;}
</style>
<defs>
</defs>
<path class="st0" d="M130.104,77.921c0.006,37.998-30.19,68.809-67.43,68.804c-1.675,0-3.335-0.062-4.979-0.186
	c0.802,0.328,1.612,0.642,2.428,0.941c0.328,0.071,0.656,0.14,0.985,0.205c4.44,0.891,9.028,1.358,13.722,1.359
	c39.097,0.007,70.799-32.343,70.793-72.237c0-1.886-0.072-3.756-0.21-5.606c-2.035-26.974-18.59-49.808-41.699-60.373
	c-8.827-4.036-18.611-6.281-28.907-6.283c-8.81-0.001-17.244,1.64-25.025,4.641c-1.073,0.595-2.128,1.216-3.167,1.862
	c5.14-1.28,10.512-1.958,16.038-1.956C99.891,9.099,130.097,39.922,130.104,77.921"/>
<path class="st0" d="M103.713,10.83c23.108,10.565,39.664,33.399,41.699,60.373c0.139,1.85,0.21,3.72,0.21,5.606
	c0.006,39.894-31.696,72.244-70.793,72.237c-4.694-0.001-9.282-0.469-13.722-1.359c-0.329-0.065-0.657-0.134-0.985-0.205
	c7.873,2.892,16.361,4.47,25.208,4.471c41.114,0.007,74.452-34.011,74.445-75.963C159.769,34.036,126.419,0.007,85.305,0
	C72.441-0.002,60.339,3.326,49.781,9.187c7.781-3.001,16.215-4.642,25.025-4.641C85.102,4.548,94.886,6.794,103.713,10.83"/>
<path class="st0" d="M54.373,129.542c-24.656-0.005-45.52-16.634-52.409-39.495C1.25,88.628,0.593,87.173,0,85.687
	c1.918,31.795,27.809,56.992,59.447,56.997c32.883,0.006,59.547-27.202,59.542-60.756c-0.003-22.318-11.807-41.834-29.388-52.401
	c1.212,1.42,2.353,2.905,3.417,4.45c9.977,10.131,16.156,24.154,16.159,39.645C109.181,104.503,84.639,129.546,54.373,129.542"/>
<path class="st0" d="M1.964,90.046c6.888,22.861,27.752,39.49,52.409,39.495c30.266,0.005,54.808-25.038,54.803-55.919
	c-0.003-15.491-6.182-29.514-16.159-39.645c6.094,8.842,9.672,19.617,9.674,31.243c0.005,30.033-23.862,54.386-53.294,54.381
	C28.736,119.597,10.813,107.591,1.964,90.046"/>
<path class="st0" d="M1.783,64.843c0.004,26.418,21.005,47.847,46.895,47.851c24.368,0.004,44.397-18.973,46.664-43.231
	c-0.834,1.855-1.797,3.638-2.876,5.337c-6.586,15.555-21.757,26.443-39.418,26.439c-23.702-0.003-42.928-19.621-42.932-43.807
	c-0.002-14.585,6.986-27.505,17.732-35.465C12.399,29.79,1.779,46.053,1.783,64.843"/>
<path class="st0" d="M10.117,57.432c0.004,24.186,19.229,43.804,42.932,43.807C70.709,101.243,85.88,90.355,92.466,74.8
	c-7.383,11.627-20.21,19.318-34.797,19.316c-22.881-0.004-41.442-18.943-41.445-42.291c-0.002-11.888,4.807-22.631,12.548-30.312
	c-0.309,0.148-0.617,0.3-0.924,0.455C17.103,29.926,10.114,42.847,10.117,57.432"/>
<path class="st0" d="M130.104,77.921c0.006,37.998-30.19,68.809-67.43,68.804c-1.675,0-3.335-0.062-4.979-0.186
	c0.802,0.328,1.612,0.642,2.428,0.941c0.328,0.071,0.656,0.14,0.985,0.205c4.44,0.891,9.028,1.358,13.722,1.359
	c39.097,0.007,70.799-32.343,70.793-72.237c0-1.886-0.072-3.756-0.21-5.606c-2.035-26.974-18.59-49.808-41.699-60.373
	c-8.827-4.036-18.611-6.281-28.907-6.283c-8.81-0.001-17.244,1.64-25.025,4.641c-1.073,0.595-2.128,1.216-3.167,1.862
	c5.14-1.28,10.512-1.958,16.038-1.956C99.891,9.099,130.097,39.922,130.104,77.921"/>
<path class="st0" d="M103.713,10.83c23.108,10.565,39.664,33.399,41.699,60.373c0.139,1.85,0.21,3.72,0.21,5.606
	c0.006,39.894-31.696,72.244-70.793,72.237c-4.694-0.001-9.282-0.469-13.722-1.359c-0.329-0.065-0.657-0.134-0.985-0.205
	c7.873,2.892,16.361,4.47,25.208,4.471c41.114,0.007,74.452-34.011,74.445-75.963C159.769,34.036,126.419,0.007,85.305,0
	C72.441-0.002,60.339,3.326,49.781,9.187c7.781-3.001,16.215-4.642,25.025-4.641C85.102,4.548,94.886,6.794,103.713,10.83"/>
<path class="st0" d="M54.373,129.542c-24.656-0.005-45.52-16.634-52.409-39.495C1.25,88.628,0.593,87.173,0,85.687
	c1.918,31.795,27.809,56.992,59.447,56.997c32.883,0.006,59.547-27.202,59.542-60.756c-0.003-22.318-11.807-41.834-29.388-52.401
	c1.212,1.42,2.353,2.905,3.417,4.45c9.977,10.131,16.156,24.154,16.159,39.645C109.181,104.503,84.639,129.546,54.373,129.542"/>
<path class="st0" d="M1.964,90.046c6.888,22.861,27.752,39.49,52.409,39.495c30.266,0.005,54.808-25.038,54.803-55.919
	c-0.003-15.491-6.182-29.514-16.159-39.645c6.094,8.842,9.672,19.617,9.674,31.243c0.005,30.033-23.862,54.386-53.294,54.381
	C28.736,119.597,10.813,107.591,1.964,90.046"/>
<path class="st0" d="M1.783,64.843c0.004,26.418,21.005,47.847,46.895,47.851c24.368,0.004,44.397-18.973,46.664-43.231
	c-0.834,1.855-1.797,3.638-2.876,5.337c-6.586,15.555-21.757,26.443-39.418,26.439c-23.702-0.003-42.928-19.621-42.932-43.807
	c-0.002-14.585,6.986-27.505,17.732-35.465C12.399,29.79,1.779,46.053,1.783,64.843"/>
<path class="st0" d="M10.117,57.432c0.004,24.186,19.229,43.804,42.932,43.807C70.709,101.243,85.88,90.355,92.466,74.8
	c-7.383,11.627-20.21,19.318-34.797,19.316c-22.881-0.004-41.442-18.943-41.445-42.291c-0.002-11.888,4.807-22.631,12.548-30.312
	c-0.309,0.148-0.617,0.3-0.924,0.455C17.103,29.926,10.114,42.847,10.117,57.432"/>
</svg>