<!-- Generator: Adobe Illustrator 19.2.0, SVG Export Plug-In  -->
<svg version="1.1"
	 xmlns="http://www.w3.org/2000/svg" xmlns:xlink="http://www.w3.org/1999/xlink" xmlns:a="http://ns.adobe.com/AdobeSVGViewerExtensions/3.0/"
	 x="0px" y="0px" width="210.575px" height="63.68px" viewBox="0 0 210.575 63.68"
	 style="enable-background:new 0 0 210.575 63.68;" xml:space="preserve">
<style type="text/css">
	.st0{fill-rule:evenodd;clip-rule:evenodd;fill:#FFFFFF;}
	.st1{fill:#FFFFFF;}
</style>
<defs>
</defs>
<g>
	<path class="st0" d="M54.524,32.655C54.527,48.58,41.872,61.492,26.265,61.49c-0.702,0-1.398-0.026-2.087-0.078
		c0.336,0.138,0.675,0.269,1.017,0.395c0.137,0.03,0.275,0.059,0.413,0.086c1.861,0.373,3.784,0.569,5.751,0.57
		c16.385,0.003,29.671-13.554,29.668-30.273c0-0.79-0.03-1.574-0.088-2.349C60.087,18.536,53.148,8.966,43.464,4.538
		c-3.699-1.691-7.799-2.632-12.114-2.633c-3.692-0.001-7.227,0.687-10.487,1.945c-0.45,0.249-0.892,0.51-1.327,0.78
		c2.154-0.536,4.405-0.821,6.721-0.82C41.862,3.813,54.521,16.731,54.524,32.655"/>
	<path class="st0" d="M43.464,4.538c9.684,4.428,16.622,13.997,17.475,25.301c0.058,0.775,0.088,1.559,0.088,2.349
		c0.003,16.719-13.283,30.276-29.668,30.273c-1.967,0-3.89-0.196-5.751-0.57c-0.138-0.027-0.275-0.056-0.413-0.086
		c3.299,1.212,6.857,1.873,10.564,1.874c17.23,0.003,31.201-14.253,31.198-31.835C66.956,14.264,52.98,0.003,35.75,0
		c-5.391-0.001-10.463,1.394-14.888,3.85c3.261-1.257,6.795-1.945,10.487-1.945C35.665,1.906,39.765,2.847,43.464,4.538"/>
	<path class="st0" d="M22.787,54.288C12.454,54.286,3.71,47.318,0.823,37.737C0.524,37.143,0.249,36.533,0,35.91
		c0.804,13.325,11.654,23.884,24.913,23.886c13.781,0.002,24.955-11.4,24.953-25.462c-0.001-9.353-4.948-17.532-12.316-21.96
		c0.508,0.595,0.986,1.218,1.432,1.865c4.181,4.246,6.771,10.123,6.772,16.615C45.756,43.795,35.471,54.291,22.787,54.288"/>
	<path class="st0" d="M0.823,37.737c2.887,9.581,11.631,16.55,21.964,16.552c12.684,0.002,22.969-10.493,22.967-23.435
		c-0.001-6.492-2.591-12.369-6.772-16.615c2.554,3.705,4.053,8.221,4.054,13.093c0.002,12.586-10,22.792-22.335,22.79
		C12.043,50.121,4.532,45.09,0.823,37.737"/>
	<path class="st0" d="M0.747,27.175C0.749,38.246,9.55,47.226,20.4,47.228c10.212,0.002,18.606-7.951,19.556-18.117
		c-0.35,0.778-0.753,1.525-1.205,2.237c-2.76,6.519-9.118,11.082-16.519,11.08c-9.933-0.001-17.99-8.223-17.992-18.359
		c-0.001-6.112,2.928-11.527,7.431-14.863C5.196,12.484,0.746,19.3,0.747,27.175"/>
	<path class="st0" d="M4.24,24.069c0.002,10.136,8.059,18.357,17.992,18.359c7.401,0.002,13.759-4.561,16.519-11.08
		c-3.094,4.872-8.47,8.096-14.583,8.095c-9.589-0.002-17.368-7.939-17.369-17.723c-0.001-4.982,2.014-9.484,5.259-12.703
		c-0.13,0.062-0.259,0.126-0.387,0.191C7.167,12.542,4.239,17.956,4.24,24.069"/>
	<path class="st1" d="M205.834,54.548h1.829c0.397,0,0.691-0.081,0.883-0.243c0.19-0.162,0.286-0.412,0.286-0.751
		c0-0.337-0.096-0.587-0.286-0.749c-0.177-0.177-0.442-0.266-0.794-0.266h-1.918V54.548z M204.268,58.827v-6.794
		c0-0.22,0.077-0.408,0.231-0.563c0.154-0.154,0.343-0.231,0.563-0.231h2.889c0.823,0,1.432,0.177,1.83,0.529
		c0.412,0.369,0.617,0.905,0.617,1.611c0,0.471-0.103,0.86-0.309,1.169c-0.177,0.293-0.455,0.506-0.838,0.64
		c0.339,0.117,0.574,0.293,0.706,0.529c0.132,0.22,0.213,0.595,0.243,1.126l0.043,0.903c0,0.089,0,0.185,0,0.286
		c0,0.104,0.008,0.199,0.023,0.288c0.045,0.264,0.131,0.433,0.265,0.507h-1.721c-0.075-0.147-0.119-0.301-0.134-0.463
		c-0.028-0.235-0.043-0.397-0.043-0.485l-0.023-0.815c-0.03-0.442-0.117-0.759-0.266-0.949c-0.16-0.162-0.448-0.243-0.858-0.243
		h-1.655v2.956H204.268z M175.963,52.759l-1.06,3.221h2.118L175.963,52.759z M175.609,51.239h1.237l2.756,7.588h-1.653l-0.508-1.566
		h-2.956L174,58.827h-1.655l2.515-7.08C174.992,51.408,175.242,51.239,175.609,51.239z M142.518,58.827v-6.794
		c0-0.22,0.077-0.408,0.231-0.563c0.154-0.154,0.343-0.231,0.563-0.231h0.772v6.176h3.706v1.412H142.518z M110.464,55.032
		c0-1.235,0.323-2.214,0.971-2.935c0.691-0.721,1.594-1.08,2.713-1.08c1.101,0,2.007,0.36,2.713,1.08
		c0.661,0.736,0.992,1.715,0.992,2.935c0,1.222-0.331,2.193-0.992,2.912c-0.678,0.706-1.581,1.06-2.713,1.06
		c-1.148,0-2.052-0.354-2.713-1.06C110.788,57.238,110.464,56.268,110.464,55.032z M112.03,55.032c0,0.855,0.185,1.5,0.552,1.943
		c0.367,0.456,0.888,0.683,1.566,0.683c0.661,0,1.182-0.228,1.564-0.683c0.382-0.471,0.574-1.119,0.574-1.943
		c0-0.823-0.192-1.478-0.574-1.964c-0.382-0.455-0.904-0.683-1.564-0.683c-0.678,0-1.199,0.228-1.566,0.683
		C112.215,53.526,112.03,54.179,112.03,55.032z M79.799,56.466h1.545c0.059,0.442,0.228,0.751,0.506,0.928
		c0.294,0.205,0.698,0.309,1.214,0.309c0.456,0,0.802-0.081,1.037-0.243c0.235-0.162,0.352-0.397,0.352-0.706
		c0-0.471-0.663-0.853-1.986-1.148l-0.043-0.021c0,0-0.058-0.015-0.177-0.045c-0.749-0.162-1.25-0.331-1.5-0.507
		c-0.294-0.162-0.499-0.397-0.617-0.708c-0.147-0.264-0.22-0.602-0.22-1.015c0-0.721,0.25-1.288,0.751-1.698
		c0.499-0.397,1.227-0.597,2.184-0.597c0.898,0,1.589,0.205,2.074,0.617c0.499,0.456,0.764,1.051,0.793,1.786h-0.881
		c-0.339,0-0.582-0.154-0.728-0.463c-0.073-0.147-0.177-0.271-0.309-0.374c-0.265-0.19-0.625-0.286-1.08-0.286
		c-0.442,0-0.759,0.081-0.949,0.243c-0.22,0.162-0.331,0.39-0.331,0.683c0,0.397,0.426,0.691,1.278,0.883
		c0.25,0.073,0.435,0.119,0.551,0.132c0.265,0.088,0.497,0.158,0.695,0.211c0.199,0.051,0.358,0.092,0.474,0.12
		c0.205,0.089,0.412,0.177,0.617,0.266c0.296,0.177,0.523,0.405,0.685,0.683c0.162,0.309,0.243,0.647,0.243,1.015
		c0,0.794-0.266,1.412-0.795,1.854c-0.529,0.412-1.28,0.618-2.251,0.618c-1,0-1.749-0.213-2.25-0.64
		C80.138,57.936,79.844,57.304,79.799,56.466z"/>
	<path class="st0" d="M126.164,27.317h30.548c-0.218-2.662-0.869-5.137-1.859-7.365c-6.576-14.799-27.781-14.081-34.322-0.456
		c-3.518,7.327-2.325,16.923,5.161,22.382c3.205,2.337,7.201,3.54,11.325,3.54h1.465c4.27,0,8.644-1.48,11.983-4.061
		c3.463-2.678,5.348-6.507,6.239-10.755h-8.085c-0.994,3.811-3.681,8.162-10.097,8.412c-5.877-0.04-9.46-2.734-11.251-7.23
		C126.694,30.334,126.22,28.68,126.164,27.317 M127.473,22.711c1.465-3.391,5.782-6.592,10.275-6.592
		c4.493,0,9.114,3.271,10.351,6.592H127.473z"/>
	<path class="st0" d="M166.771,28.959l-12.583,15.421l10.23-0.041l11.249-15.278L163.05,9.953l-9.3,0.393
		C158.09,16.003,166.771,28.959,166.771,28.959"/>
	<polygon class="st0" points="190.622,10.362 181.617,10.361 172.996,20.954 177.224,27.575 	"/>
	<polygon class="st0" points="172.472,37.427 179.361,46.795 188.496,46.795 177.203,31.086 	"/>
	<path class="st1" d="M201.206,32.98c0,1.78,0.417,3.086,1.247,3.917v0.005c0.828,0.828,2.134,1.243,3.917,1.243h3.123h1.082v1.082
		v4.679v1.082h-1.082h-3.123c-3.936,0-6.921-1.017-8.953-3.049l-0.004-0.004c-2.032-2.032-3.049-5.017-3.049-8.953V20.01v-3.13
		v-6.842V5.887V3.307V2.225h1.081h4.679h1.081v1.081v6.731h6.731h1.081v1.081v4.679v1.081h-1.081h-6.731V32.98z"/>
	<path class="st1" d="M79.362,14.041V44.63h8.219V21.096L104.2,44.63h8.699V10.363h-8.219v23.534L88.061,10.363h-4.5
		c-0.79,0.009-1.5,0.185-2.13,0.512c-0.63,0.336-1.13,0.781-1.5,1.335C79.562,12.765,79.372,13.378,79.362,14.041"/>
	<path class="st0" d="M54.524,32.655C54.527,48.58,41.872,61.492,26.265,61.49c-0.702,0-1.398-0.026-2.087-0.078
		c0.336,0.138,0.675,0.269,1.017,0.395c0.137,0.03,0.275,0.059,0.413,0.086c1.861,0.373,3.784,0.569,5.751,0.57
		c16.385,0.003,29.671-13.554,29.668-30.273c0-0.79-0.03-1.574-0.088-2.349C60.087,18.536,53.148,8.966,43.464,4.538
		c-3.699-1.691-7.799-2.632-12.114-2.633c-3.692-0.001-7.227,0.687-10.487,1.945c-0.45,0.249-0.892,0.51-1.327,0.78
		c2.154-0.536,4.405-0.821,6.721-0.82C41.862,3.813,54.521,16.731,54.524,32.655"/>
	<path class="st0" d="M43.464,4.538c9.684,4.428,16.622,13.997,17.475,25.301c0.058,0.775,0.088,1.559,0.088,2.349
		c0.003,16.719-13.283,30.276-29.668,30.273c-1.967,0-3.89-0.196-5.751-0.57c-0.138-0.027-0.275-0.056-0.413-0.086
		c3.299,1.212,6.857,1.873,10.564,1.874c17.23,0.003,31.201-14.253,31.198-31.835C66.956,14.264,52.98,0.003,35.75,0
		c-5.391-0.001-10.463,1.394-14.888,3.85c3.261-1.257,6.795-1.945,10.487-1.945C35.665,1.906,39.765,2.847,43.464,4.538"/>
	<path class="st0" d="M22.787,54.288C12.454,54.286,3.71,47.318,0.823,37.737C0.524,37.143,0.249,36.533,0,35.91
		c0.804,13.325,11.654,23.884,24.913,23.886c13.781,0.002,24.955-11.4,24.953-25.462c-0.001-9.353-4.948-17.532-12.316-21.96
		c0.508,0.595,0.986,1.218,1.432,1.865c4.181,4.246,6.771,10.123,6.772,16.615C45.756,43.795,35.471,54.291,22.787,54.288"/>
	<path class="st0" d="M0.823,37.737c2.887,9.581,11.631,16.55,21.964,16.552c12.684,0.002,22.969-10.493,22.967-23.435
		c-0.001-6.492-2.591-12.369-6.772-16.615c2.554,3.705,4.053,8.221,4.054,13.093c0.002,12.586-10,22.792-22.335,22.79
		C12.043,50.121,4.532,45.09,0.823,37.737"/>
	<path class="st0" d="M0.747,27.175C0.749,38.246,9.55,47.226,20.4,47.228c10.212,0.002,18.606-7.951,19.556-18.117
		c-0.35,0.778-0.753,1.525-1.205,2.237c-2.76,6.519-9.118,11.082-16.519,11.08c-9.933-0.001-17.99-8.223-17.992-18.359
		c-0.001-6.112,2.928-11.527,7.431-14.863C5.196,12.484,0.746,19.3,0.747,27.175"/>
	<path class="st0" d="M4.24,24.069c0.002,10.136,8.059,18.357,17.992,18.359c7.401,0.002,13.759-4.561,16.519-11.08
		c-3.094,4.872-8.47,8.096-14.583,8.095c-9.589-0.002-17.368-7.939-17.369-17.723c-0.001-4.982,2.014-9.484,5.259-12.703
		c-0.13,0.062-0.259,0.126-0.387,0.191C7.167,12.542,4.239,17.956,4.24,24.069"/>
</g>
</svg>