<!-- Generator: Adobe Illustrator 19.2.0, SVG Export Plug-In  -->
<svg version="1.1"
	 xmlns="http://www.w3.org/2000/svg" xmlns:xlink="http://www.w3.org/1999/xlink" xmlns:a="http://ns.adobe.com/AdobeSVGViewerExtensions/3.0/"
	 x="0px" y="0px" width="502.467px" height="151.952px" viewBox="0 0 502.467 151.952"
	 style="enable-background:new 0 0 502.467 151.952;" xml:space="preserve">
<style type="text/css">
	.st0{fill-rule:evenodd;clip-rule:evenodd;fill:#FF9E00;}
	.st1{fill-rule:evenodd;clip-rule:evenodd;fill:#F58C00;}
	.st2{fill-rule:evenodd;clip-rule:evenodd;fill:#ED8F1C;}
	.st3{fill-rule:evenodd;clip-rule:evenodd;fill:#F2A300;}
	.st4{fill-rule:evenodd;clip-rule:evenodd;fill:#F2AB00;}
	.st5{fill-rule:evenodd;clip-rule:evenodd;fill:#F7BD00;}
	.st6{fill:#4D4D4D;}
	.st7{fill-rule:evenodd;clip-rule:evenodd;fill:#0A6E3B;}
	.st8{fill:#0A6E3B;}
</style>
<defs>
</defs>
<path class="st0" d="M130.104,77.921c0.006,37.998-30.19,68.809-67.43,68.804c-1.675,0-3.335-0.062-4.979-0.186
	c0.802,0.328,1.612,0.642,2.428,0.941c0.328,0.071,0.656,0.14,0.985,0.205c4.44,0.891,9.028,1.358,13.722,1.359
	c39.097,0.007,70.799-32.343,70.793-72.237c0-1.886-0.072-3.756-0.21-5.606c-2.035-26.974-18.59-49.808-41.699-60.373
	c-8.827-4.036-18.611-6.281-28.907-6.283c-8.81-0.001-17.244,1.64-25.025,4.641c-1.073,0.595-2.128,1.216-3.167,1.862
	c5.14-1.28,10.512-1.958,16.038-1.956C99.891,9.099,130.097,39.922,130.104,77.921"/>
<path class="st1" d="M103.713,10.83c23.108,10.565,39.664,33.399,41.699,60.373c0.139,1.85,0.21,3.72,0.21,5.606
	c0.006,39.894-31.696,72.244-70.793,72.237c-4.694-0.001-9.282-0.469-13.722-1.359c-0.329-0.065-0.657-0.134-0.985-0.205
	c7.873,2.892,16.361,4.47,25.208,4.471c41.114,0.007,74.452-34.011,74.445-75.963C159.769,34.036,126.419,0.007,85.305,0
	C72.441-0.002,60.339,3.326,49.781,9.187c7.781-3.001,16.215-4.642,25.025-4.641C85.102,4.548,94.886,6.794,103.713,10.83"/>
<path class="st2" d="M54.373,129.542c-24.656-0.005-45.52-16.634-52.409-39.495C1.25,88.628,0.593,87.173,0,85.687
	c1.918,31.795,27.809,56.992,59.447,56.997c32.883,0.006,59.547-27.202,59.542-60.756c-0.003-22.318-11.807-41.834-29.388-52.401
	c1.212,1.42,2.353,2.905,3.417,4.45c9.977,10.131,16.156,24.154,16.159,39.645C109.181,104.503,84.639,129.546,54.373,129.542"/>
<path class="st3" d="M1.964,90.046c6.888,22.861,27.752,39.49,52.409,39.495c30.266,0.005,54.808-25.038,54.803-55.919
	c-0.003-15.491-6.182-29.514-16.159-39.645c6.094,8.842,9.672,19.617,9.674,31.243c0.005,30.033-23.862,54.386-53.294,54.381
	C28.736,119.597,10.813,107.591,1.964,90.046"/>
<path class="st4" d="M1.783,64.843c0.004,26.418,21.005,47.847,46.895,47.851c24.368,0.004,44.397-18.973,46.664-43.231
	c-0.834,1.855-1.797,3.638-2.876,5.337c-6.586,15.555-21.757,26.443-39.418,26.439c-23.702-0.003-42.928-19.621-42.932-43.807
	c-0.002-14.585,6.986-27.505,17.732-35.465C12.399,29.79,1.779,46.053,1.783,64.843"/>
<path class="st5" d="M10.117,57.432c0.004,24.186,19.229,43.804,42.932,43.807C70.709,101.243,85.88,90.355,92.466,74.8
	c-7.383,11.627-20.21,19.318-34.797,19.316c-22.881-0.004-41.442-18.943-41.445-42.291c-0.002-11.888,4.807-22.631,12.548-30.312
	c-0.309,0.148-0.617,0.3-0.924,0.455C17.103,29.926,10.114,42.847,10.117,57.432"/>
<path class="st6" d="M491.155,130.161h4.365c0.948,0,1.649-0.193,2.107-0.58c0.453-0.386,0.683-0.983,0.683-1.792
	c0-0.804-0.229-1.401-0.683-1.787c-0.423-0.423-1.056-0.634-1.895-0.634h-4.577V130.161z M487.417,140.371V124.16
	c0-0.525,0.184-0.975,0.552-1.344c0.368-0.368,0.818-0.552,1.344-0.552h6.895c1.963,0,3.418,0.422,4.366,1.262
	c0.983,0.881,1.473,2.16,1.473,3.845c0,1.123-0.246,2.053-0.736,2.79c-0.422,0.7-1.087,1.208-1.999,1.527
	c0.809,0.278,1.37,0.7,1.684,1.262c0.315,0.525,0.508,1.42,0.58,2.687l0.103,2.155c0,0.212,0,0.44,0,0.684
	c0,0.247,0.019,0.476,0.055,0.686c0.108,0.629,0.314,1.033,0.633,1.209h-4.106c-0.18-0.351-0.283-0.719-0.319-1.105
	c-0.067-0.561-0.103-0.947-0.103-1.158l-0.054-1.945c-0.072-1.056-0.279-1.81-0.634-2.264c-0.382-0.387-1.069-0.58-2.048-0.58
	h-3.948v7.053H487.417z M419.878,125.893l-2.529,7.686h5.054L419.878,125.893z M419.034,122.264h2.951l6.576,18.106h-3.943
	l-1.213-3.737h-7.053l-1.158,3.737h-3.948l6.001-16.894C417.56,122.668,418.158,122.264,419.034,122.264z M340.073,140.371V124.16
	c0-0.525,0.184-0.975,0.552-1.344c0.368-0.368,0.817-0.552,1.344-0.552h1.842v14.737h8.844v3.369H340.073z M263.586,131.315
	c0-2.947,0.771-5.282,2.317-7.003c1.648-1.72,3.805-2.578,6.473-2.578c2.627,0,4.788,0.858,6.473,2.578
	c1.576,1.756,2.367,4.092,2.367,7.003c0,2.915-0.791,5.232-2.367,6.948c-1.617,1.684-3.773,2.529-6.473,2.529
	c-2.74,0-4.897-0.845-6.473-2.529C264.358,136.58,263.586,134.266,263.586,131.315z M267.323,131.315c0,2.039,0.44,3.58,1.316,4.636
	c0.876,1.087,2.12,1.63,3.737,1.63c1.576,0,2.82-0.543,3.732-1.63c0.912-1.123,1.37-2.669,1.37-4.636
	c0-1.963-0.458-3.526-1.37-4.686c-0.912-1.087-2.156-1.63-3.732-1.63c-1.617,0-2.861,0.543-3.737,1.63
	C267.763,127.721,267.323,129.28,267.323,131.315z M190.415,134.738h3.688c0.14,1.056,0.543,1.792,1.208,2.214
	c0.701,0.49,1.667,0.737,2.897,0.737c1.087,0,1.913-0.193,2.475-0.58c0.561-0.386,0.84-0.947,0.84-1.684
	c0-1.123-1.581-2.035-4.739-2.74l-0.104-0.05c0,0-0.139-0.036-0.422-0.107c-1.788-0.387-2.982-0.791-3.58-1.209
	c-0.701-0.386-1.191-0.947-1.473-1.688c-0.351-0.629-0.525-1.438-0.525-2.421c0-1.721,0.597-3.072,1.792-4.052
	c1.19-0.947,2.929-1.424,5.21-1.424c2.143,0,3.791,0.489,4.95,1.473c1.19,1.088,1.824,2.507,1.891,4.263h-2.102
	c-0.809,0-1.388-0.368-1.738-1.105c-0.175-0.35-0.422-0.646-0.737-0.893c-0.633-0.454-1.491-0.683-2.578-0.683
	c-1.056,0-1.81,0.193-2.264,0.579c-0.526,0.386-0.791,0.93-0.791,1.631c0,0.947,1.016,1.649,3.05,2.106
	c0.597,0.175,1.038,0.283,1.316,0.314c0.633,0.211,1.186,0.377,1.658,0.503c0.476,0.121,0.854,0.22,1.132,0.287
	c0.489,0.212,0.983,0.423,1.473,0.634c0.705,0.422,1.249,0.966,1.635,1.631c0.387,0.736,0.58,1.545,0.58,2.421
	c0,1.895-0.634,3.368-1.896,4.424c-1.262,0.983-3.054,1.474-5.372,1.474c-2.385,0-4.173-0.508-5.368-1.527
	C191.223,138.246,190.522,136.737,190.415,134.738z"/>
<path class="st7" d="M301.048,65.183h72.892c-0.52-6.351-2.073-12.258-4.437-17.575c-15.69-35.314-66.29-33.599-81.897-1.088
	c-8.394,17.484-5.548,40.381,12.314,53.408c7.648,5.576,17.184,8.447,27.023,8.447h3.495c10.189,0,20.626-3.532,28.594-9.69
	c8.264-6.39,12.761-15.526,14.887-25.662h-19.291c-2.372,9.093-8.784,19.476-24.094,20.071
	c-14.023-0.095-22.574-6.523-26.846-17.252C302.313,72.381,301.182,68.437,301.048,65.183 M304.171,54.192
	c3.496-8.091,13.798-15.73,24.519-15.73c10.722,0,21.748,7.804,24.698,15.73H304.171z"/>
<path class="st1" d="M397.945,69.102L367.92,105.9l24.411-0.098l26.843-36.456l-30.11-45.597l-22.192,0.937
	C377.23,38.186,397.945,69.102,397.945,69.102"/>
<polygon class="st7" points="454.857,24.727 433.37,24.724 412.798,50.001 422.887,65.798 "/>
<polygon class="st7" points="411.546,89.306 427.987,111.66 449.785,111.66 422.835,74.177 "/>
<path class="st8" d="M480.111,78.696c0,4.247,0.994,7.364,2.976,9.348v0.011c1.976,1.976,5.093,2.966,9.347,2.966h7.452h2.581v2.581
	v11.164v2.581h-2.581h-7.452c-9.392,0-16.515-2.428-21.363-7.276l-0.011-0.01c-4.849-4.85-7.275-11.972-7.275-21.364V47.747v-7.468
	V23.953v-9.905V7.891V5.31h2.58h11.166h2.58v2.581v16.062h16.062h2.58v2.58v11.165v2.58h-2.58h-16.062V78.696z"/>
<path class="st8" d="M189.371,33.505v72.99h19.612V50.34l39.655,56.156h20.758V24.727h-19.612v56.155l-39.655-56.155h-10.737
	c-1.885,0.021-3.579,0.441-5.082,1.223c-1.503,0.802-2.696,1.864-3.579,3.187C189.848,30.459,189.395,31.922,189.371,33.505"/>
<path class="st0" d="M130.104,77.921c0.006,37.998-30.19,68.809-67.43,68.804c-1.675,0-3.335-0.062-4.979-0.186
	c0.802,0.328,1.612,0.642,2.428,0.941c0.328,0.071,0.656,0.14,0.985,0.205c4.44,0.891,9.028,1.358,13.722,1.359
	c39.097,0.007,70.799-32.343,70.793-72.237c0-1.886-0.072-3.756-0.21-5.606c-2.035-26.974-18.59-49.808-41.699-60.373
	c-8.827-4.036-18.611-6.281-28.907-6.283c-8.81-0.001-17.244,1.64-25.025,4.641c-1.073,0.595-2.128,1.216-3.167,1.862
	c5.14-1.28,10.512-1.958,16.038-1.956C99.891,9.099,130.097,39.922,130.104,77.921"/>
<path class="st1" d="M103.713,10.83c23.108,10.565,39.664,33.399,41.699,60.373c0.139,1.85,0.21,3.72,0.21,5.606
	c0.006,39.894-31.696,72.244-70.793,72.237c-4.694-0.001-9.282-0.469-13.722-1.359c-0.329-0.065-0.657-0.134-0.985-0.205
	c7.873,2.892,16.361,4.47,25.208,4.471c41.114,0.007,74.452-34.011,74.445-75.963C159.769,34.036,126.419,0.007,85.305,0
	C72.441-0.002,60.339,3.326,49.781,9.187c7.781-3.001,16.215-4.642,25.025-4.641C85.102,4.548,94.886,6.794,103.713,10.83"/>
<path class="st2" d="M54.373,129.542c-24.656-0.005-45.52-16.634-52.409-39.495C1.25,88.628,0.593,87.173,0,85.687
	c1.918,31.795,27.809,56.992,59.447,56.997c32.883,0.006,59.547-27.202,59.542-60.756c-0.003-22.318-11.807-41.834-29.388-52.401
	c1.212,1.42,2.353,2.905,3.417,4.45c9.977,10.131,16.156,24.154,16.159,39.645C109.181,104.503,84.639,129.546,54.373,129.542"/>
<path class="st3" d="M1.964,90.046c6.888,22.861,27.752,39.49,52.409,39.495c30.266,0.005,54.808-25.038,54.803-55.919
	c-0.003-15.491-6.182-29.514-16.159-39.645c6.094,8.842,9.672,19.617,9.674,31.243c0.005,30.033-23.862,54.386-53.294,54.381
	C28.736,119.597,10.813,107.591,1.964,90.046"/>
<path class="st4" d="M1.783,64.843c0.004,26.418,21.005,47.847,46.895,47.851c24.368,0.004,44.397-18.973,46.664-43.231
	c-0.834,1.855-1.797,3.638-2.876,5.337c-6.586,15.555-21.757,26.443-39.418,26.439c-23.702-0.003-42.928-19.621-42.932-43.807
	c-0.002-14.585,6.986-27.505,17.732-35.465C12.399,29.79,1.779,46.053,1.783,64.843"/>
<path class="st5" d="M10.117,57.432c0.004,24.186,19.229,43.804,42.932,43.807C70.709,101.243,85.88,90.355,92.466,74.8
	c-7.383,11.627-20.21,19.318-34.797,19.316c-22.881-0.004-41.442-18.943-41.445-42.291c-0.002-11.888,4.807-22.631,12.548-30.312
	c-0.309,0.148-0.617,0.3-0.924,0.455C17.103,29.926,10.114,42.847,10.117,57.432"/>
</svg>