<!-- Generator: Adobe Illustrator 21.0.0, SVG Export Plug-In  -->
<svg version="1.1"
	 xmlns="http://www.w3.org/2000/svg" xmlns:xlink="http://www.w3.org/1999/xlink" xmlns:a="http://ns.adobe.com/AdobeSVGViewerExtensions/3.0/"
	 x="0px" y="0px" width="241.408px" height="149.101px" viewBox="0 0 241.408 149.101"
	 style="enable-background:new 0 0 241.408 149.101;" xml:space="preserve">
<style type="text/css">
	.st0{fill:#BDBDBD;}
</style>
<defs>
</defs>
<path class="st0" d="M203.951,148.216c0,0-0.767-0.921-1.459-1.382c-0.691-0.461-1.92-1.152-2.227-1.306
	c-0.307-0.154-1.689-0.384-1.689-0.384s-0.23-0.538-1.075-0.538c-0.845,0-1.613-0.921-1.689-1.229
	c-0.077-0.307-0.768-1.228-1.075-1.536c-0.307-0.307-0.154-1.612-0.615-2.15c-0.461-0.537,0.23-2.073,0.384-2.457
	c0.154-0.384,0.384-1.766,0.154-2.227c-0.23-0.461,0.23-1.228,0.307-1.612c0.076-0.384,0.307-1.152,0.307-1.152
	s-0.153-1.075,0.154-1.612c0.307-0.537-0.154-1.536-0.154-1.536s-0.537-1.382-0.691-1.843c-0.154-0.461-0.154-0.845-0.461-1.306
	c-0.307-0.461,0.077-1.306,0.077-1.306s0.461-0.691-0.614-0.921c-1.075-0.23-0.384-0.922-0.384-0.922s-0.998-0.384-0.691-0.538
	c0.307-0.154-0.154-3.916-0.154-3.916l-0.691-0.844l0.076-0.307c0,0-0.691-0.615-1.536-0.922c-0.845-0.307-0.307-1.152-0.921-1.612
	c-0.614-0.461,0.384-1.228-0.307-1.612c-0.691-0.384,0.077-1.075-0.307-1.306c-0.384-0.23,0.154-1.536,0.384-1.69
	c0.23-0.154,1.843-1.382,1.843-1.382s1.152-1.613,1.382-1.92c0.23-0.307,0.999,0.077,0.999,0.077l1.152,0.077v-1.075l0.662-1.152
	l1.258-1.843l0.615-0.998l0.921-0.23l0.461-1.187c0,0,0.077-0.886,0.077-1.27c0-0.384-1.689-2.688-1.689-2.688
	s-0.461-0.922-1.306-2.304c-0.845-1.382,0.077-4.761,0.845-5.375c0.768-0.615,2.381,0,2.381,0l2.15,0.845
	c0,0,0.538-0.154,1.382,0.98c0.845,1.133,1.152,1.359,1.152,1.359l1.997,0.733l0.998,1.306l1.459,0.802c0,0-0.537,0.887,1.075,0.273
	c1.612-0.614,2.227,0,2.227,0l2.841,0.691c0.23,0,3.148,1.612,3.148,1.612l1.843,0.999l1.613,0.768l1.766,1.27h0.721l0.354,0.573
	l2.15,1.382l0.845,1.152l1.459,1.613l1.152,0.998c0,0,0.845,0.614,0.615,1.305c-0.23,0.691-0.23,3.456-0.307,3.993
	c-0.076,0.538,0.615,1.689,0.615,1.689l0.307-0.615l0.307-0.556c0,0,0.115,0.178,0.269,0.292c0.153,0.116,0.345,0.168,0.499-0.08
	c0.307-0.498,0.844,0.037,0.844,0.037s0.845-0.23,1.306,0.461c0.461,0.691,0.615,2.381,0.384,3.149
	c-0.23,0.768,0.614,1.228,1.075,1.228c0.461,0,0.614,0.384,0.614,0.998c0,0.614,3.609,2.513,3.609,2.513s0.768,0.021,1.766,0.482
	c0.998,0.461,0.307,1.306,0,1.766c-0.307,0.461-0.537,1.536-0.537,1.536s-4.07,3.456-5.375,4.377s-1.382,1.305-1.766,1.229
	c-0.384-0.077-1.075,0.691-1.766,1.152c-0.691,0.461-1.152,0-1.152,0l-1.228,0.691l-1.536,0.998c0,0-0.768,0.307-0.998,0.384
	c-0.23,0.077-1.306,0.384-1.766,0.461c-0.461,0.077-1.69-0.077-1.69-0.077v-0.384h-0.537h-0.614c0,0-0.768,0-1.152,0
	c-0.384,0-0.615,0.768-0.615,0.768s-0.614,0.154-1.075,0.537c-0.461,0.384-0.691,1.152-1.229,1.613c-0.537,0.461-0.998,0-0.998,0
	l-0.615,0.691h-0.537l-1.536,1.612l-0.845,0.538h-0.614h-1.152v0.845c0,0-0.307,0.23-0.691,0.915
	c-0.384,0.685-0.998,2.387-1.382,2.924c-0.384,0.537-1.382,1.612-1.382,1.612s0.461,0.768,0,0.921c-0.461,0.154-0.461,0-0.921,0
	c-0.461,0-0.307,1.306-0.768,1.613c-0.461,0.307-1.766,1.229-1.766,1.229C203.932,149.484,203.951,148.216,203.951,148.216z
	 M170.207,59.101c0,0-0.216-0.691-0.389-1.152c-0.173-0.461-0.691-0.806-0.691-0.806l-0.115-0.921l-0.403,0.058l-0.23-0.461
	l-0.461-0.345l-0.346-0.287l-0.864-0.462l-0.173-0.634h-0.576l-0.403,0.346l-0.518,0.518l-0.23-0.518h-0.576l-0.057,0.75h-0.346
	l-0.288,0.575h-0.634c0,0-1.094,1.958-1.209,2.707c-0.116,0.749,0.518,1.267,0.691,1.555c0.173,0.288,0.346,1.785,0.346,1.785
	l1.44,1.267l0.921,1.309h0.403l1.152,0.477l1.325,0.461v0.403c0,0,0.518,0.288,1.037,0.23c0.518-0.058,0.576-0.806,0.576-0.806
	l1.037-0.173c0,0,0.979,0.403,1.21,0.461c0.23,0.058,0.173,0.979,0.115,1.267c-0.057,0.288,0,0.749,0.288,0.979
	c0.288,0.23,0.23,2.246,0.173,2.419c-0.058,0.173,0.173,1.497,0.173,1.497l-0.461,0.439l0.634,0.655c0,0,0,0.518-0.173,0.806
	c-0.173,0.288,1.037,0.173,1.037,0.173l0.288,0.816l0.403-0.24c0,0,0.173,0.288,0.461,0.518c0.288,0.23,1.094-0.272,1.094-0.272
	l0.634-0.005h0.922c0,0,1.037-0.068,1.325,0c0.288,0.068,0.806-0.528,0.806-0.528l0.403-0.346l3.571-1.037l0.864-0.058
	c0,0,0.519,0.058,0.922,0.288c0.403,0.23,0.691-0.758,0.691-0.758s0.461-0.106,0.749-0.012c0.288,0.094,0.748-0.382,0.921-0.497
	c0.173-0.115,1.498,0,1.498,0s0.288-0.403,0.346-0.979c0.057-0.576,1.267-0.749,1.267-0.749s0.346-0.518,0.691-0.922
	c0.345-0.403,0.634-1.497,0.461-2.592c-0.173-1.094-1.67-1.728-1.843-1.917c-0.173-0.189-1.555-0.502-1.555-0.502l-1.152-0.749
	c0,0-0.173,0.345-0.807,0.345c-0.633,0-0.806-1.209-0.806-1.209s-0.403-0.461-0.921-0.403c-0.518,0.058-0.806-0.461-0.806-0.461
	s-0.749-0.691-1.037-1.222c-0.288-0.531-1.498-1.024-2.016-1.211c-0.518-0.187-0.806-0.389-1.382-0.968
	c-0.576-0.58-1.325,0.061-1.325,0.061s0,0-0.576-0.057c-0.576-0.058-0.749,0.576-0.749,0.576h-0.921l-0.403,0.403l-1.613,0.749
	c0,0-0.691,0.115-1.67,0.346c-0.979,0.23-1.037,0-1.037,0C170.905,59.981,170.207,59.101,170.207,59.101z M163.308,75.285
	c0,0-0.804,0.576-1.322,1.094c-0.518,0.518,0,0.691,0,0.691l0.634,0.864c0,0,0,0,0.461,0.023c0.461,0.023,0.864-0.541,0.864-0.541
	s0.288,0.345,0.634,0.518c0.345,0.173,0.403-0.691,0.748-0.576c0.346,0.115,1.052-0.345,1.052-0.345v0.921l0.733-0.288l0.634-0.288
	l0.576,0.288l0.491-0.461l-0.204-0.806h-0.461c0,0-0.403-0.23-0.115-0.461c0.288-0.23,0.173-0.806,0.173-0.806
	s0.346,0.115,0.576-0.285c0.23-0.4-0.921-0.551-0.921-0.551s-0.403-0.777-1.094-0.834c-0.691-0.058-2.822,1.67-2.822,1.67
	C163.315,75.595,163.308,75.285,163.308,75.285z M154.383,67.337c0,0,0.345-0.749,1.267-0.806c0.921-0.058,0.422-0.518,0.758-0.864
	c0.336-0.346,0.912-1.283,0.912-1.283s0.057-1.021-0.346-1.366c-0.403-0.346-1.9-2.419-1.9-2.419s-1.728-1.613-2.477-1.613
	c-0.749,0-1.267,0-1.267,0h-1.152c0,0-1.152-0.058-1.44,0c-0.288,0.058-1.44,0.345-1.44,0.345s-1.266,0.576-0.978,1.037
	c0.287,0.461,0.765,1.325,1.304,1.325c0.538,0,1.057,0.518,1.114,0.691c0.058,0.173,1.267,1.5,0.979,2.075
	c-0.288,0.575,0.173,1.899,0.173,1.899s0.288,0.749,0.864,0.979c0.576,0.23,1.613,0,1.613,0s0.979,0.205,1.497,0.102
	C154.383,67.337,154.383,67.337,154.383,67.337z M148.221,47.179c0,0,0,0-0.864,0.068c-0.864,0.068-1.267,0-1.267,0
	s-0.749-0.298-1.498-0.529c-0.748-0.23-1.008,0-1.008,0l-1.987-0.23c0,0-0.519-0.345-0.864-0.691
	c-0.346-0.346-1.094,0.115-1.094,0.115l-0.634-0.403h-0.288l-0.403,0.344c0,0,0.461,0.347,0.403,1.153
	c-0.057,0.806-0.921,1.326-0.921,1.326s-0.115,0.517-0.806,0.92c-0.691,0.403-0.173,0.576-0.403,1.152
	c-0.23,0.576-0.403,0.749-0.403,0.749l0.518,0.23l0.807,0.058l3.225,0.115l1.785-0.058c0,0,0.691,0,1.066-0.173
	c0.375-0.173,1.238-0.346,1.238-0.346l0.922,0.115c0,0,1.037,0.115,1.555,0.23c0.519,0.115,0.747,0.574,0.747,0.574h1.011
	l2.274,0.924c0,0,0,0,1.44,0.345c1.44,0.345,5.298-0.864,5.298-0.864l0.288-0.405c0,0-0.288,0.405,0.288,0
	c0.576-0.405,2.016-1.956,2.016-1.956s0.403-0.518,0.518-0.864c0.115-0.345,0-0.466,0-0.466l-0.748-0.281c0,0,0.288,0.229,0-0.224
	c-0.288-0.453-0.806-0.225-0.806-0.225s-0.403,0.102-0.864,0c-0.461-0.102-0.576,0.275-0.922,0c-0.345-0.275-0.921-0.013-1.152,0
	c-0.23,0.013-0.864,0.381-0.864,0.381h-0.921c0,0-0.806-0.279-1.037-0.157c-0.23,0.123-0.115,0.281-0.806,0
	c-0.691-0.28-1.258,0-1.258,0l-0.413-0.225v-0.636l-0.23-0.874L150.64,46.2c0,0,0.115-0.518-0.288-0.288
	c-0.403,0.23-0.173,0.921-0.461,1.094c-0.288,0.173-0.519,0.576-0.519,0.576L148.221,47.179z M101.859,29.268
	c0,0-0.749,0.058-1.67,0.23s-1.958-0.058-1.958-0.058l-2.765,0.403c0,0,2.361,1.325,2.361,2.534c0,1.21-0.23,1.44,0.288,1.901
	c0.518,0.461,1.555,1.267,1.209,2.131c-0.345,0.864,0,0.864,0.806,1.152c0.806,0.288,1.555,1.785,1.613,2.304
	c0.058,0.518,0.518,1.555,0.518,1.555s0.403,0.518,0.403,0.979c0,0.461,2.419-0.173,2.419-0.173l1.497-0.32l0.864-0.256l0.749-0.346
	c0,0,0.518-0.345,0.633-0.058c0.115,0.288,1.267,0.659,1.267,0.659s1.037,0.262,1.037,0c0-0.262,0.115-0.832,0.403-0.947
	c0.288-0.115,0.23,0.518,0.173,0.947c-0.058,0.429,1.325,0.32,1.325,0.32l0.806,0.921c0,0,0.749,0.403,0.864,0.749
	c0.115,0.345,1.44,0,1.44,0l0.979-0.634c0,0,1.094-0.173,1.382-0.345c0.288-0.173,0.403,0.288,0.921,0.576
	c0.518,0.288,0.634,0,0.634,0l0.979-0.691c0,0,1.037-0.518,1.094-0.896c0.057-0.377-0.864-1.063-1.621-1.235
	c-0.758-0.173-0.912-0.979-0.97-1.382c-0.058-0.403,0.173-1.267,0-1.67c-0.173-0.403-0.691-0.403-1.267-0.634
	c-0.576-0.23,0.058-0.518-0.115-0.518c-0.173,0,0.461-0.518,0.461-0.518s0.288-0.288,0.403-0.691
	c0.115-0.403-0.173-0.346-0.691-0.173c-0.518,0.173-0.576,0.058-1.025-0.288c-0.449-0.346-0.473,0.173-0.818,0.518
	c-0.346,0.346,0.691,0.461,0.806,0.633c0.115,0.173-0.634,1.037-0.634,1.037s-0.518-0.057-0.518-0.403
	c0-0.346-0.576-0.403-0.806-0.461c-0.23-0.058-0.058-0.576-0.288-0.864c-0.23-0.288-0.691-0.23-1.094-0.346
	c-0.403-0.115,0.173-0.461,0-0.864c-0.173-0.403-0.576-0.288-0.576-0.288s0.23-0.691,0.518-0.806
	c0.288-0.115,0.345-0.403,0.345-0.921c0-0.518-0.518-1.382-0.979-1.382s-0.691,0.345-0.749,0c-0.058-0.346,0.288-1.094-0.288-1.037
	c-0.576,0.058-0.461-0.288-0.461-0.288s0.23-0.403,0-0.633c-0.23-0.23,0-0.518-0.518-0.518c-0.518,0-0.403-0.691-0.403-0.691
	l-1.382-2.765c0,0-0.173-0.806-0.345-0.864c-0.173-0.058-0.23-0.346-0.864-0.403c-0.634-0.058-0.749,0.461-0.749,0.461h-0.461
	c0,0-0.691,0.288-0.806,0.518c-0.115,0.23-0.806,0.864-1.267,1.267c-0.461,0.403-0.461,0.634-0.461,1.094
	c0,0.461-0.921,0.921-0.921,0.921l-0.922,0.979C102.665,29.729,101.859,29.268,101.859,29.268z M40.004,15.503
	c0,0,0.461-0.576,0.806-0.461c0.346,0.115,0.403,0.461,0.749,0.461c0.345,0,1.094-0.23,1.209,0c0.115,0.23,1.497,0,1.497,0
	l0.979,0.749h0.403c0,0,0.634-0.403,0.864,0c0.23,0.403,0.749,0,0.749,0l0.979-0.979l0.576-0.246l0.634-0.733
	c0,0,0.115-0.23,0.806-0.576c0.691-0.346,0.461-1.037,0.461-1.037h0.864c0,0,0.115-0.461,0-1.958
	c-0.115-1.497-0.806-1.037-0.288-2.016c0.518-0.979,0.979-1.267,0.979-1.267V6.404l0.461-0.461l0.518-0.921l-0.691-1.555
	l-0.346-1.152l-0.749-0.806c0,0-0.864-0.576-1.267-0.576c-0.403,0-0.633,0-0.633,0l-0.461-0.461c0,0-0.576-0.461-0.864-0.288
	c-0.288,0.173-0.864,0.461-0.864,0.461l-0.518-0.499l-1.037,0.269c0,0-0.576-0.711-0.921-0.269
	c-0.346,0.442-0.346,0.442-0.346,0.442s0,0.576-0.173,0.576c-0.173,0-0.806,0.288-0.691-0.23c0.115-0.518-1.094-0.115-1.094-0.115
	s-0.23-0.634-0.749-0.576c-0.518,0.058-1.037-0.058-1.267,0.23c-0.23,0.288-0.576,0.749-0.576,0.749l-0.691,0.345l-0.633,0.518
	L37.815,2.66c0,0-0.346,0.403-0.806,0.345c-0.461-0.057-0.634-0.115-1.21,0.173c-0.576,0.288-1.209,0.288-1.267,0.806
	c-0.058,0.518,0,1.209,0,1.209s-0.518,0.346-0.576,0.518c-0.058,0.173,0.173,0.518,0,0.634s-1.209,0.806-1.267,1.037
	c-0.058,0.23-0.576,1.267-0.461,1.613c0.115,0.345,0.173,1.037,0.461,1.094c0.288,0.058,0.346,0.518,0.346,0.518
	s1.382,1.728,2.419,1.901c1.037,0.173,1.325,0,1.555,0.173c0.23,0.173,0.691,0.403,0.691,0.403s0.173,0.115,0.345,0.518
	s0.403,0.23,0.749,0.634c0.346,0.403,0.346,0.864,0.691,0.806C39.831,14.985,39.716,15.331,40.004,15.503z M20.076,14.236
	c0,0-0.634-0.806,0-1.613c0.634-0.806,0.576-0.288,0.634-0.806c0.058-0.518,0.288,0.23,0.461,0c0.173-0.23,0.461-0.921,0-1.267
	c-0.461-0.346-0.864,0.173-1.037,0c-0.173-0.173-1.037-0.058-1.267,0.173c-0.23,0.23-0.346,0.749-0.346,0.749v0.861
	c0,0-0.461,0.118-0.576,0.406c-0.115,0.288-0.518,0.288-0.518,0.288s-0.634-0.058-0.691,0.115c-0.058,0.173-0.921,0.576-0.921,0.576
	s-0.806,0.288-0.749,0.518c0.057,0.23-0.173,0.518-0.403,0.633c-0.23,0.115-1.152,0.576-1.094,0.979
	c0.058,0.403,0.283,0.749-0.002,0.864c-0.285,0.115-0.516,0.576-0.516,0.576v0.288v0.345v0.922l0.346,0.633
	c0,0-0.173,0.461,0.173,0.634c0.346,0.173,0.461-0.346,0.806,0c0.346,0.346,0.346,0.921,0.691,0.461
	c0.345-0.461,0.173-1.209,0.173-1.209l0.461-0.806c0,0,0.864-1.67,1.094-1.785c0.23-0.115,0.749,0.013,1.037-0.339
	c0.288-0.352,0.173-0.294,0.979-0.467c0.806-0.173,1.152-0.461,1.267-0.691C20.192,15.043,20.076,14.236,20.076,14.236z
	 M19.097,9.111v0.691h0.403h0.461V8.88h-0.432l-0.432-0.23V9.111z M0.207,26.849c-0.115,0.23,0.691,0.403,0.691,0.403l0.691-0.691
	v-0.634l-0.461-0.23c0,0,0.115-0.576-0.403-0.23c-0.518,0.345-0.518,0.461-0.518,0.461C-0.312,26.388,0.322,26.619,0.207,26.849z"/>
</svg>